:FULLY-SPECIFIED
:FORCE-ALL-JOINTS-BE-3DOF
:DEGREES
476
root 4.62061 16.2945 -6.62129 -16.6222 54.9082 -23.86
lfemur -27.1626 -11.3628 -17.1023
ltibia 49.0502 0 0
lfoot -25.0542 -4.20692 0
ltoes 9.20597 0 0
rfemur -52.2528 6.57226 6.74372
rtibia 65.1679 0 0
rfoot 7.89879 9.14885 0
rtoes -15.8993 0 0
lowerback 6.39864 0.512453 -0.0484648
upperback 0.841533 0.706193 0.696137
thorax -2.6278 0.376343 0.703351
lowerneck -8.33749 -5.72128 1.42995
upperneck 7.8187 -7.84622 0.365825
head 4.01802 -3.80222 -0.741166
lclavicle -1.64643e-14 1.52081e-15 0
lhumerus -47.3131 -30.337 110.447
lradius 53.9917 0 0
lwrist 6.30475 0 0
lhand -0.348449 0.0409061 0
lfingers 7.12502 0 0
lthumb 25.2049 27.8036 0
rclavicle -1.64643e-14 1.52081e-15 0
rhumerus -42.2166 29.8245 -93.2318
rradius 85.8741 0 0
rwrist 21.3435 0 0
rhand -7.79496 -16.4221 0
rfingers 7.12502 0 0
rthumb 18.0767 -765.159 0
477
root 4.65991 16.3045 -6.57907 -17.1442 56.7551 -24.3307
lfemur -27.0754 -11.7726 -17.3885
ltibia 48.9191 0 0
lfoot -25.0255 -4.37443 0
ltoes 9.6047 0 0
rfemur -52.607 6.57342 6.85495
rtibia 65.5484 0 0
rfoot 7.90932 9.28066 0
rtoes -15.8975 0 0
lowerback 6.37478 0.46183 -0.1218
upperback 0.816018 0.63537 0.732064
thorax -2.64435 0.341467 0.786526
lowerneck -8.37824 -5.94941 1.24064
upperneck 7.88585 -8.13933 0.446258
head 4.04074 -3.94752 -0.699936
lclavicle -1.62581e-14 1.38337e-15 0
lhumerus -47.3984 -30.5081 110.776
lradius 54.1178 0 0
lwrist 6.19378 0 0
lhand 0.134545 0.0842216 0
lfingers 7.12502 0 0
lthumb 25.6688 27.7978 0
rclavicle -1.62581e-14 1.38337e-15 0
rhumerus -42.073 30.4005 -93.3303
rradius 86.2516 0 0
rwrist 21.5095 0 0
rhand -7.34859 -16.3388 0
rfingers 7.12502 0 0
rthumb 18.5068 -765.048 0
478
root 4.69873 16.3143 -6.53754 -17.6723 58.5774 -24.808
lfemur -26.9891 -12.1767 -17.6708
ltibia 48.7898 0 0
lfoot -24.9968 -4.53947 0
ltoes 9.99812 0 0
rfemur -52.9565 6.57429 6.96484
rtibia 65.9234 0 0
rfoot 7.91947 9.41049 0
rtoes -15.8955 0 0
lowerback 6.35122 0.41186 -0.194174
upperback 0.790867 0.565461 0.767548
thorax -2.66065 0.307041 0.86864
lowerneck -8.41844 -6.17461 1.05375
upperneck 7.95211 -8.42867 0.525711
head 4.06316 -4.09094 -0.659215
lclavicle -1.60521e-14 1.24865e-15 0
lhumerus -47.4825 -30.677 111.102
lradius 54.2424 0 0
lwrist 6.08444 0 0
lhand 0.61125 0.127077 0
lfingers 7.12502 0 0
lthumb 26.1266 27.7921 0
rclavicle -1.60521e-14 1.24865e-15 0
rhumerus -41.9307 30.9692 -93.4272
rradius 86.6247 0 0
rwrist 21.6727 0 0
rhand -6.90824 -16.2567 0
rfingers 7.12502 0 0
rthumb 18.9311 -764.938 0
479
root 4.73704 16.324 -6.49669 -18.2065 60.3732 -25.2923
lfemur -26.9038 -12.5749 -17.9489
ltibia 48.6624 0 0
lfoot -24.9682 -4.70195 0
ltoes 10.3858 0 0
rfemur -53.3009 6.57499 7.07321
rtibia 66.2927 0 0
rfoot 7.9293 9.53824 0
rtoes -15.8935 0 0
lowerback 6.32802 0.362604 -0.265504
upperback 0.766103 0.496552 0.802549
thorax -2.6767 0.273108 0.949599
lowerneck -8.45806 -6.39662 0.869485
upperneck 8.01742 -8.71391 0.604074
head 4.08527 -4.23233 -0.619061
lclavicle -1.58463e-14 1.11676e-15 0
lhumerus -47.5655 -30.8435 111.422
lradius 54.3652 0 0
lwrist 5.9768 0 0
lhand 1.08113 0.169384 0
lfingers 7.12502 0 0
lthumb 26.5779 27.7866 0
rclavicle -1.58463e-14 1.11676e-15 0
rhumerus -41.7901 31.5299 -93.5224
rradius 86.9929 0 0
rwrist 21.8331 0 0
rhand -6.47422 -16.1757 0
rfingers 7.12502 0 0
rthumb 19.3493 -764.83 0
480
root 4.77476 16.3335 -6.45652 -18.747 62.1406 -25.7834
lfemur -26.8197 -12.9668 -18.2226
ltibia 48.5372 0 0
lfoot -24.94 -4.86182 0
ltoes 10.7672 0 0
rfemur -53.64 6.57563 7.17985
rtibia 66.6559 0 0
rfoot 7.93886 9.66385 0
rtoes -15.8915 0 0
lowerback 6.30523 0.314127 -0.335708
upperback 0.741751 0.428734 0.837028
thorax -2.6925 0.239712 1.02931
lowerneck -8.49706 -6.61519 0.688078
upperneck 8.08175 -8.99473 0.681237
head 4.10705 -4.37152 -0.579528
lclavicle -1.56408e-14 9.87806e-16 0
lhumerus -47.6471 -31.0074 111.738
lradius 54.486 0 0
lwrist 5.87094 0 0
lhand 1.54363 0.211052 0
lfingers 7.12502 0 0
lthumb 27.0221 27.7812 0
rclavicle -1.56408e-14 9.87806e-16 0
rhumerus -41.6513 32.0823 -93.6157
rradius 87.3558 0 0
rwrist 21.9904 0 0
rhand -6.04684 -16.096 0
rfingers 7.12502 0 0
rthumb 19.7611 -764.723 0
481
root 4.81186 16.3429 -6.41702 -19.2937 63.8778 -26.2817
lfemur -26.737 -13.3519 -18.4915
ltibia 48.4142 0 0
lfoot -24.9124 -5.019 0
ltoes 11.1419 0 0
rfemur -53.9732 6.57632 7.28457
rtibia 67.0125 0 0
rfoot 7.94822 9.78723 0
rtoes -15.8895 0 0
lowerback 6.28291 0.266491 -0.404703
upperback 0.717838 0.362094 0.870943
thorax -2.70806 0.206897 1.10768
lowerneck -8.5354 -6.83005 0.509743
upperneck 8.14506 -9.2708 0.757091
head 4.12848 -4.50836 -0.540671
lclavicle -1.54359e-14 8.61916e-16 0
lhumerus -47.7273 -31.1686 112.048
lradius 54.6048 0 0
lwrist 5.76694 0 0
lhand 1.99823 0.251993 0
lfingers 7.12502 0 0
lthumb 27.4588 27.7759 0
rclavicle -1.54359e-14 8.61916e-16 0
rhumerus -41.5144 32.6256 -93.7072
rradius 87.7131 0 0
rwrist 22.1445 0 0
rhand -5.62644 -16.0174 0
rfingers 7.12502 0 0
rthumb 20.1662 -764.618 0
482
root 4.84826 16.352 -6.37819 -19.8466 65.5829 -26.787
lfemur -26.6558 -13.7299 -18.7555
ltibia 48.2936 0 0
lfoot -24.8855 -5.17343 0
ltoes 11.5094 0 0
rfemur -54.3004 6.57716 7.38717
rtibia 67.3622 0 0
rfoot 7.95741 9.9083 0
rtoes -15.8877 0 0
lowerback 6.26112 0.219762 -0.472406
upperback 0.694388 0.296721 0.904255
thorax -2.72337 0.174706 1.18462
lowerneck -8.57303 -7.04097 0.334698
upperneck 8.2073 -9.54179 0.831523
head 4.14956 -4.64268 -0.502545
lclavicle -1.52314e-14 7.39201e-16 0
lhumerus -47.806 -31.3268 112.353
lradius 54.7214 0 0
lwrist 5.66485 0 0
lhand 2.44437 0.292118 0
lfingers 7.12502 0 0
lthumb 27.8873 27.7706 0
rclavicle -1.52314e-14 7.39201e-16 0
rhumerus -41.3797 33.1593 -93.7966
rradius 88.0644 0 0
rwrist 22.2953 0 0
rhand -5.21333 -15.94 0
rfingers 7.12502 0 0
rthumb 20.5642 -764.515 0
483
root 4.88392 16.361 -6.34002 -20.4059 67.2541 -27.2995
lfemur -26.5764 -14.1005 -19.0143
ltibia 48.1756 0 0
lfoot -24.8595 -5.32504 0
ltoes 11.8693 0 0
rfemur -54.6211 6.57826 7.48745
rtibia 67.7047 0 0
rfoot 7.96651 10.027 0
rtoes -15.8862 0 0
lowerback 6.23992 0.174001 -0.538736
upperback 0.671425 0.232704 0.936924
thorax -2.73845 0.143185 1.26003
lowerneck -8.60993 -7.24767 0.163164
upperneck 8.26844 -9.80737 0.904425
head 4.17027 -4.77432 -0.465207
lclavicle -1.50276e-14 6.19776e-16 0
lhumerus -47.883 -31.482 112.652
lradius 54.8357 0 0
lwrist 5.56477 0 0
lhand 2.88153 0.331336 0
lfingers 7.12502 0 0
lthumb 28.3071 27.7653 0
rclavicle -1.50276e-14 6.19776e-16 0
rhumerus -41.2474 33.683 -93.884
rradius 88.4093 0 0
rwrist 22.4427 0 0
rhand -4.80782 -15.8639 0
rfingers 7.12502 0 0
rthumb 20.9549 -764.414 0
484
root 4.91877 16.3698 -6.30251 -20.9715 68.8895 -27.8194
lfemur -26.499 -14.4633 -19.2675
ltibia 48.0602 0 0
lfoot -24.8347 -5.47376 0
ltoes 12.2211 0 0
rfemur -54.935 6.57973 7.58521
rtibia 68.0395 0 0
rfoot 7.97556 10.1432 0
rtoes -15.8848 0 0
lowerback 6.21938 0.129272 -0.603609
upperback 0.648975 0.17013 0.968908
thorax -2.75328 0.112375 1.33381
lowerneck -8.64605 -7.44991 -0.00464341
upperneck 8.32842 -10.0672 0.975686
head 4.19059 -4.90311 -0.428711
lclavicle -1.48246e-14 5.03757e-16 0
lhumerus -47.9584 -31.6338 112.944
lradius 54.9474 0 0
lwrist 5.46676 0 0
lhand 3.30915 0.36956 0
lfingers 7.12502 0 0
lthumb 28.7179 27.76 0
rclavicle -1.48246e-14 5.03757e-16 0
rhumerus -41.1175 34.196 -93.9691
rradius 88.7475 0 0
rwrist 22.5865 0 0
rhand -4.41024 -15.7889 0
rfingers 7.12502 0 0
rthumb 21.338 -764.314 0
485
root 4.95277 16.3784 -6.26565 -21.5436 70.4872 -28.3466
lfemur -26.4236 -14.8178 -19.515
ltibia 47.9477 0 0
lfoot -24.8111 -5.61951 0
ltoes 12.5644 0 0
rfemur -55.2417 6.58167 7.68026
rtibia 68.3663 0 0
rfoot 7.98461 10.2568 0
rtoes -15.8838 0 0
lowerback 6.19954 0.0856388 -0.666942
upperback 0.627064 0.109089 1.00017
thorax -2.76789 0.0823223 1.40588
lowerneck -8.68135 -7.64743 -0.168504
upperneck 8.38722 -10.321 1.0452
head 4.21051 -5.0289 -0.393112
lclavicle -1.46223e-14 3.91258e-16 0
lhumerus -48.032 -31.7823 113.229
lradius 55.0565 0 0
lwrist 5.3709 0 0
lhand 3.7267 0.406699 0
lfingers 7.12502 0 0
lthumb 29.1189 27.7546 0
rclavicle -1.46223e-14 3.91258e-16 0
rhumerus -40.9904 34.6978 -94.0519
rradius 89.0784 0 0
rwrist 22.7266 0 0
rhand -4.02091 -15.7152 0
rfingers 7.12502 0 0
rthumb 21.7131 -764.215 0
486
root 4.98586 16.3868 -6.22944 -22.1221 72.0454 -28.8814
lfemur -26.3506 -15.1638 -19.7565
ltibia 47.8382 0 0
lfoot -24.7892 -5.76224 0
ltoes 12.8986 0 0
rfemur -55.5409 6.58421 7.7724
rtibia 68.6847 0 0
rfoot 7.99373 10.3678 0
rtoes -15.8832 0 0
lowerback 6.18047 0.0431649 -0.728654
upperback 0.605715 0.0496693 1.03066
thorax -2.78226 0.0530692 1.47615
lowerneck -8.71579 -7.83998 -0.328199
upperneck 8.44478 -10.5684 1.11285
head 4.23002 -5.15153 -0.358466
lclavicle -1.4421e-14 2.82397e-16 0
lhumerus -48.1036 -31.927 113.508
lradius 55.1628 0 0
lwrist 5.27725 0 0
lhand 4.13363 0.442665 0
lfingers 7.12502 0 0
lthumb 29.5097 27.7491 0
rclavicle -1.4421e-14 2.82397e-16 0
rhumerus -40.8662 35.1878 -94.1323
rradius 89.4018 0 0
rwrist 22.8628 0 0
rhand -3.64014 -15.6426 0
rfingers 7.12502 0 0
rthumb 22.0799 -764.119 0
487
root 5.01797 16.3949 -6.19386 -22.707 73.5622 -29.4237
lfemur -26.2801 -15.5008 -19.9917
ltibia 47.7317 0 0
lfoot -24.7689 -5.90188 0
ltoes 13.2233 0 0
rfemur -55.8322 6.58743 7.86144
rtibia 68.9943 0 0
rfoot 8.00297 10.4761 0
rtoes -15.883 0 0
lowerback 6.16223 0.00191359 -0.788662
upperback 0.584954 -0.0080412 1.06036
thorax -2.79641 0.0246599 1.54451
lowerneck -8.74933 -8.02729 -0.483511
upperneck 8.50107 -10.8091 1.17852
head 4.24909 -5.27082 -0.324828
lclavicle -1.42207e-14 1.77288e-16 0
lhumerus -48.1733 -32.068 113.778
lradius 55.2662 0 0
lwrist 5.1859 0 0
lhand 4.52942 0.477369 0
lfingers 7.12502 0 0
lthumb 29.8899 27.7435 0
rclavicle -1.42207e-14 1.77288e-16 0
rhumerus -40.745 35.6655 -94.2101
rradius 89.7173 0 0
rwrist 22.9951 0 0
rhand -3.26826 -15.5713 0
rfingers 7.12502 0 0
rthumb 22.4382 -764.024 0
